<?xml version="1.0" standalone="no"?>
<!DOCTYPE svg PUBLIC "-//W3C//DTD SVG 1.1//EN" "http://www.w3.org/Graphics/SVG/1.1/DTD/svg11.dtd" >
<svg xmlns="http://www.w3.org/2000/svg">
<metadata></metadata>
<defs>
<font id="marsmedium" horiz-adv-x="409" >
<font-face units-per-em="2048" ascent="1638" descent="-410" />
<missing-glyph horiz-adv-x="500" />
<glyph />
<glyph />
<glyph unicode="&#xd;" />
<glyph />
<glyph />
<glyph />
<glyph />
<glyph />
<glyph />
<glyph />
<glyph />
<glyph unicode="&#x9;" />
<glyph unicode="&#xa;" />
<glyph />
<glyph />
<glyph />
<glyph />
<glyph />
<glyph />
<glyph />
<glyph />
<glyph />
<glyph />
<glyph />
<glyph />
<glyph />
<glyph />
<glyph />
<glyph />
<glyph />
<glyph />
<glyph />
<glyph />
<glyph unicode=" " />
<glyph unicode="!" d="M102 102v205h205v-205h-205zM102 512v1024h205v-1024h-205z" />
<glyph unicode="," d="M102 -102v409h205v-409h-205z" />
<glyph unicode="." d="M102 102v205h205v-205h-205z" />
<glyph unicode="0" horiz-adv-x="1228" d="M102 102v1434h1024v-1434h-1024zM307 307h615v1024h-615v-1024zM512 614v410h205v-410h-205z" />
<glyph unicode="1" d="M102 102v1434h205v-1434h-205z" />
<glyph unicode="2" horiz-adv-x="1228" d="M102 102v615h615v614h-615v205h820v-1024h-615v-205h819v-205h-1024z" />
<glyph unicode="3" horiz-adv-x="1228" d="M102 102v205h820v205h-308v205h308v614h-820v205h1024v-1434h-1024z" />
<glyph unicode="4" horiz-adv-x="1228" d="M102 512v1024h205v-819h615v819h204v-1434h-204v410h-820z" />
<glyph unicode="5" horiz-adv-x="1228" d="M102 102v205h820v615h-615v614h819v-205h-614v-205h614v-1024h-1024z" />
<glyph unicode="6" horiz-adv-x="1228" d="M102 102v1434h512v-205h-307v-205h819v-1024h-1024zM307 307h615v615h-615v-615z" />
<glyph unicode="7" horiz-adv-x="1228" d="M102 1331v205h1024v-1434h-204v1229h-820z" />
<glyph unicode="8" horiz-adv-x="1228" d="M102 102v1434h1024v-1434h-1024zM307 307h615v615h-615v-615zM307 1126h615v205h-615v-205z" />
<glyph unicode="9" horiz-adv-x="1228" d="M102 512v1024h1024v-1434h-512v205h308v205h-820zM307 717h615v614h-615v-614z" />
<glyph unicode=":" d="M102 307v205h205v-205h-205zM102 1126v205h205v-205h-205z" />
<glyph unicode=";" d="M102 -102v614h205v-614h-205zM102 1126v205h205v-205h-205z" />
<glyph unicode="?" horiz-adv-x="819" d="M102 102v205h205v-205h-205zM102 512v205h410v614h-410v205h615v-1024h-615z" />
<glyph unicode="A" horiz-adv-x="1228" d="M102 102v1434h1024v-1434h-204v410h-615v-410h-205zM307 717h615v614h-615v-614z" />
<glyph unicode="B" horiz-adv-x="1228" d="M102 102v1434h820v-410h204v-1024h-1024zM307 307h615v615h-615v-615zM307 1126h410v205h-410v-205z" />
<glyph unicode="C" horiz-adv-x="1228" d="M102 102v1434h1024v-205h-819v-1024h819v-205h-1024z" />
<glyph unicode="D" horiz-adv-x="1228" d="M102 102v205h820v1024h-820v205h1024v-1434h-1024z" />
<glyph unicode="E" horiz-adv-x="1228" d="M102 102v1434h1024v-205h-819v-614h307v-205h-307v-205h819v-205h-1024z" />
<glyph unicode="F" horiz-adv-x="1228" d="M102 102v1434h1024v-205h-819v-614h307v-205h-307v-410h-205z" />
<glyph unicode="G" horiz-adv-x="1228" d="M102 102v1434h512v-205h-307v-1024h615v205h-308v205h512v-615h-1024z" />
<glyph unicode="H" horiz-adv-x="1228" d="M102 102v1434h205v-819h615v819h204v-1434h-204v410h-615v-410h-205z" />
<glyph unicode="I" d="M102 102v1434h205v-1434h-205z" />
<glyph unicode="J" horiz-adv-x="1228" d="M102 102v205h820v1229h204v-1434h-1024z" />
<glyph unicode="K" horiz-adv-x="1228" d="M102 102v1434h205v-819h410v819h205v-819h204v-615h-204v410h-615v-410h-205z" />
<glyph unicode="L" horiz-adv-x="1228" d="M102 102v1434h205v-1229h819v-205h-1024z" />
<glyph unicode="M" horiz-adv-x="1228" d="M102 102v1434h1024v-1434h-204v1229h-205v-409h-205v409h-205v-1229h-205z" />
<glyph unicode="N" horiz-adv-x="1228" d="M102 102v1434h615v-1229h205v1229h204v-1434h-614v1229h-205v-1229h-205z" />
<glyph unicode="O" horiz-adv-x="1228" d="M102 102v1434h1024v-1434h-1024zM307 307h615v1024h-615v-1024z" />
<glyph unicode="P" horiz-adv-x="1228" d="M102 102v1434h1024v-1024h-819v-410h-205zM307 717h615v614h-615v-614z" />
<glyph unicode="Q" horiz-adv-x="1228" d="M102 102v1434h1024v-1434h-1024zM307 307h205v410h205v-410h205v1024h-615v-1024z" />
<glyph unicode="R" horiz-adv-x="1228" d="M102 102v1434h1024v-1024h-204v-410h-205v410h-410v-410h-205zM307 717h615v614h-615v-614z" />
<glyph unicode="S" horiz-adv-x="1228" d="M102 102v205h820v205h-820v1024h1024v-205h-819v-614h819v-615h-1024z" />
<glyph unicode="T" horiz-adv-x="1228" d="M102 1331v205h1024v-205h-409v-1229h-205v1229h-410z" />
<glyph unicode="U" horiz-adv-x="1228" d="M102 102v1434h205v-1229h615v1229h204v-1434h-1024z" />
<glyph unicode="V" horiz-adv-x="819" d="M102 102v1434h205v-1229h205v1229h205v-1434h-615z" />
<glyph unicode="W" horiz-adv-x="1228" d="M102 102v1434h205v-1229h205v410h205v-410h205v1229h204v-1434h-1024z" />
<glyph unicode="X" horiz-adv-x="1228" d="M102 102v615h820v819h204v-1024h-819v-410h-205zM102 819v717h205v-717h-205zM922 102v308h204v-308h-204z" />
<glyph unicode="Y" horiz-adv-x="1228" d="M102 512v1024h205v-819h615v819h204v-1434h-512v205h308v205h-820z" />
<glyph unicode="Z" horiz-adv-x="1228" d="M102 102v1024h820v205h-820v205h1024v-614h-819v-615h819v-205h-1024z" />
<glyph unicode="a" horiz-adv-x="614" d="M51 154v307h410v102h-154v103h256v-512h-512zM154 256h307v102h-307v-102z" />
<glyph unicode="b" horiz-adv-x="614" d="M51 154v716h103v-204h409v-512h-512zM154 256h307v307h-307v-307z" />
<glyph unicode="c" horiz-adv-x="614" d="M51 154v512h512v-103h-409v-307h409v-102h-512z" />
<glyph unicode="d" horiz-adv-x="614" d="M51 154v512h410v204h102v-716h-512zM154 256h307v307h-307v-307z" />
<glyph unicode="e" horiz-adv-x="614" d="M51 154v512h512v-308h-409v-102h153v-102h-256zM154 461h307v102h-307v-102z" />
<glyph unicode="f" d="M51 154v716h307v-102h-204v-307h204v-103h-204v-204h-103z" />
<glyph unicode="g" horiz-adv-x="614" d="M51 154v512h512v-717h-102v205h-410zM154 256h307v307h-307v-307z" />
<glyph unicode="h" horiz-adv-x="614" d="M51 154v716h103v-204h409v-512h-102v409h-307v-409h-103z" />
<glyph unicode="i" d="M51 563v103h307v-512h-102v409h-205zM256 768v102h102v-102h-102z" />
<glyph unicode="j" d="M51 563v103h307v-717h-102v614h-205zM256 768v102h102v-102h-102z" />
<glyph unicode="k" horiz-adv-x="614" d="M51 154v716h103v-409h102v205h102v-205h205v-307h-102v204h-307v-204h-103z" />
<glyph unicode="l" horiz-adv-x="204" d="M51 154v716h103v-716h-103z" />
<glyph unicode="m" horiz-adv-x="614" d="M51 154v512h512v-512h-102v409h-103v-205h-102v205h-102v-409h-103z" />
<glyph unicode="n" horiz-adv-x="614" d="M51 154v512h512v-512h-102v409h-307v-409h-103z" />
<glyph unicode="o" horiz-adv-x="614" d="M51 154v512h512v-512h-512zM154 256h307v307h-307v-307z" />
<glyph unicode="p" horiz-adv-x="614" d="M51 -51v717h512v-512h-409v-205h-103zM154 256h307v307h-307v-307z" />
<glyph unicode="q" horiz-adv-x="614" d="M51 154v512h512v-615h103v-102h-205v205h-410zM154 256h307v307h-307v-307z" />
<glyph unicode="r" d="M51 154v512h307v-103h-204v-409h-103z" />
<glyph unicode="s" horiz-adv-x="614" d="M51 154v102h410v102h-410v308h512v-103h-409v-102h409v-307h-512z" />
<glyph unicode="t" d="M51 154v716h103v-409h204v-103h-204v-102h204v-102h-307z" />
<glyph unicode="u" horiz-adv-x="614" d="M51 154v512h103v-410h307v410h102v-512h-512z" />
<glyph unicode="v" d="M51 154v512h103v-410h102v410h102v-512h-307z" />
<glyph unicode="w" horiz-adv-x="614" d="M51 154v512h103v-410h102v205h102v-205h103v410h102v-512h-512z" />
<glyph unicode="x" horiz-adv-x="614" d="M51 154v307h410v205h102v-308h-409v-204h-103zM51 512v154h103v-154h-103zM461 154v153h102v-153h-102z" />
<glyph unicode="y" horiz-adv-x="614" d="M51 154v512h103v-410h307v410h102v-717h-102v205h-410z" />
<glyph unicode="z" horiz-adv-x="614" d="M51 154v307h410v102h-410v103h512v-308h-409v-102h409v-102h-512z" />
<glyph unicode="&#xa0;" />
<glyph unicode="&#xa7;" horiz-adv-x="1228" d="M102 512v1024h512v-205h-307v-205h819v-1024h-512v205h308v205h-820zM307 717h615v205h-615v-205z" />
<glyph unicode="&#xd6;" horiz-adv-x="1228" d="M102 102v1127h205v-922h615v922h204v-1127h-1024zM102 1331v205h205v-205h-205zM410 1331v205h409v-205h-409zM922 1331v205h204v-205h-204z" />
<glyph unicode="&#xdc;" horiz-adv-x="1228" d="M102 102v1127h205v-922h615v922h204v-1127h-1024zM102 1331v205h205v-205h-205zM922 1331v205h204v-205h-204z" />
<glyph unicode="&#x2000;" horiz-adv-x="768" />
<glyph unicode="&#x2001;" horiz-adv-x="1536" />
<glyph unicode="&#x2002;" horiz-adv-x="768" />
<glyph unicode="&#x2003;" horiz-adv-x="1536" />
<glyph unicode="&#x2004;" horiz-adv-x="512" />
<glyph unicode="&#x2005;" horiz-adv-x="384" />
<glyph unicode="&#x2006;" horiz-adv-x="256" />
<glyph unicode="&#x2007;" horiz-adv-x="256" />
<glyph unicode="&#x2008;" horiz-adv-x="192" />
<glyph unicode="&#x2009;" horiz-adv-x="307" />
<glyph unicode="&#x200a;" horiz-adv-x="85" />
<glyph unicode="&#x202f;" horiz-adv-x="307" />
<glyph unicode="&#x205f;" horiz-adv-x="384" />
<glyph unicode="&#x25fc;" horiz-adv-x="665" d="M0 0v666h666v-666h-666z" />
</font>
</defs>
</svg>
